<?xml version="1.0"?>
<svg xmlns="http://www.w3.org/2000/svg" id="icons" enable-background="new 0 0 64 64" height="512px" viewBox="0 0 64 64" width="512px" class=""><g transform="matrix(1.0201, 0, 0, 1.0201, -0.6432, -0.6432)"><path d="m10.002 28h-9.002v27h9.002c.549 0 1-.45 1-1s0-1.45 0-2v-21c0-.55 0-1.45 0-2s-.451-1-1-1z" fill="#656d78" data-original="#656D78" class="" style="fill:#1991CE" data-old_color="#656d78"/><path d="m39 37 19.32-2.939c.219-.04.45-.061.68-.061 2.209 0 4 1.79 4 4 0 1.48-.801 2.771-2 3.461l-27 14.539-23-3v-23h9l15.689 3.061c1.881.32 3.311 1.96 3.311 3.939z" fill="#eac6bb" data-original="#EAC6BB" class="" style="fill:#1991CE" data-old_color="#eac6bb"/><path d="m6.029 53c-.553 0-1.004-.447-1.004-1s.441-1 .994-1h.01c.553 0 1 .447 1 1s-.447 1-1 1z" fill="#ffce54" data-original="#FFCE54" class="active-path" style="fill:#FFFFFF" data-old_color="#ffce54"/><path d="m40.973 36.7-1.973.3c0 2.209-1.791 4-4 4-.113 0-.227-.009-.338-.018-.002-.001-.002-.002-.004-.002l-12.58-.978c-.547-.035-1.031.37-1.076.92-.041.551.369 1.031.92 1.074l12.484.97v.004c.198.02.397.03.594.03 3.309 0 6-2.691 6-6 0-.103-.021-.199-.027-.3z" fill="#d3b1a9" data-original="#D3B1A9" class="" style="fill:#1991CE" data-old_color="#d3b1a9"/><path d="m35 12v12l-4-4v-12z" fill="#aab2bd" data-original="#AAB2BD" class="" style="fill:#AAB2BD"/><path d="m39 13.01h12v12h-12z" fill="#e6e9ed" data-original="#E6E9ED" class="" style="fill:#E6E9ED"/><path d="m55 29.01h-12l-4-4h12z" fill="#ccd1d9" data-original="#CCD1D9" class=""/><path d="m35 24h-12l-4-4h12z" fill="#ccd1d9" data-original="#CCD1D9" class=""/><path d="m19 8h12v12h-12z" fill="#e6e9ed" data-original="#E6E9ED" class="" style="fill:#E6E9ED"/><path d="m55 17.01v12l-4-4v-12z" fill="#aab2bd" data-original="#AAB2BD" class="" style="fill:#AAB2BD"/><g fill="#656d78"><path d="m25.027 14.998c-.553 0-1.004-.447-1.004-1s.441-1 .994-1h.01c.553 0 1 .447 1 1s-.447 1-1 1z" data-original="#656D78" class="" style="fill:#1991CE" data-old_color="#656D78"/><path d="m28.031 11.996c-.553 0-1.006-.447-1.006-1s.443-1 .994-1h.012c.551 0 1 .447 1 1s-.449 1-1 1z" data-original="#656D78" class="" style="fill:#1991CE" data-old_color="#656D78"/><path d="m28.031 18.002c-.553 0-1.006-.447-1.006-1s.443-1 .994-1h.012c.551 0 1 .447 1 1s-.449 1-1 1z" data-original="#656D78" class="" style="fill:#1991CE" data-old_color="#656D78"/><path d="m22.025 18.002c-.553 0-1.006-.447-1.006-1s.443-1 .994-1h.012c.551 0 1 .447 1 1s-.449 1-1 1z" data-original="#656D78" class="" style="fill:#1991CE" data-old_color="#656D78"/><path d="m22.025 11.996c-.553 0-1.006-.447-1.006-1s.443-1 .994-1h.012c.551 0 1 .447 1 1s-.449 1-1 1z" data-original="#656D78" class="" style="fill:#1991CE" data-old_color="#656D78"/><path d="m45.025 20.01c-.553 0-1.004-.447-1.004-1s.441-1 .994-1h.01c.553 0 1 .447 1 1s-.447 1-1 1z" data-original="#656D78" class="" style="fill:#1991CE" data-old_color="#656D78"/><path d="m48.029 17.008c-.553 0-1.006-.447-1.006-1s.443-1 .994-1h.012c.551 0 1 .447 1 1s-.449 1-1 1z" data-original="#656D78" class="" style="fill:#1991CE" data-old_color="#656D78"/><path d="m42.023 23.014c-.553 0-1.006-.447-1.006-1s.443-1 .994-1h.012c.551 0 1 .447 1 1s-.449 1-1 1z" data-original="#656D78" class="" style="fill:#1991CE" data-old_color="#656D78"/></g></g> </svg>
