<?xml version="1.0"?>
<svg xmlns="http://www.w3.org/2000/svg" id="icons" enable-background="new 0 0 64 64" height="512px" viewBox="0 0 64 64" width="512px" class=""><g><path d="m6.03 51.002h-.01c-.552 0-.994.447-.994 1s.452 1 1.005 1c.552 0 1-.447 1-1s-.449-1-1.001-1z" data-original="#000000" class="active-path" data-old_color="#000000" fill="#1991CE"/><path d="m59 33.002c-.284 0-.569.023-.849.07-.004.001-.007.003-.011.004l-18.286 2.784c-.444-1.907-1.965-3.417-3.961-3.775-.005-.001-.009-.005-.014-.006l-15.688-3.059c-.033-.007-.064.004-.097.001-.033-.004-.062-.02-.095-.02h-8v-1c0-.553-.447-1-1-1h-9.999c-.553 0-1 .447-1 1v27c0 .553.447 1 1 1h10c.553 0 1-.447 1-1v-.861l21.871 2.853c.044.006.087.009.13.009.105 0 .211-.023.314-.058.026-.009.052-.02.078-.03.026-.012.054-.018.08-.031l27-14.537c.002-.001.003-.003.005-.004.008-.004.016-.006.023-.01 1.542-.891 2.499-2.551 2.499-4.33 0-2.757-2.243-5-5-5zm-49 21h-8v-25h8zm50.515-13.412-26.706 14.379-21.809-2.845v-21.122h7.903l15.593 3.04c.005.001.01.001.014.001.003.001.004.003.007.003 1.439.248 2.483 1.491 2.483 2.956 0 1.654-1.346 3-3 3-.104 0-.205-.006-.307-.017-.007-.001-.012.002-.019.001-.007 0-.012-.004-.019-.005l-12.579-.977c-.556-.048-1.031.368-1.074.92-.043.551.369 1.031.92 1.074l12.579.977c.026.002.053.003.078.003h.002c.138.012.276.023.418.023 2.458 0 4.496-1.787 4.912-4.128l18.556-2.825c.004-.001.006-.003.01-.004h.004c.168-.028.342-.043.519-.043 1.654 0 3 1.346 3 3 0 1.063-.569 2.052-1.485 2.589z" data-original="#000000" class="active-path" data-old_color="#000000" fill="#1991CE"/><path d="m18.292 20.706 3.998 3.998c.092.093.203.166.326.217.122.051.252.077.382.077h12c.13 0 .26-.026.382-.077.245-.102.439-.296.541-.541.051-.122.077-.252.077-.382v-12c0-.13-.026-.26-.077-.382-.051-.123-.124-.234-.217-.326l-3.998-3.998c-.092-.093-.203-.166-.326-.217-.122-.051-.252-.077-.382-.077h-12c-.553 0-1 .447-1 1v12c0 .13.026.26.077.382.051.123.124.234.217.326zm15.706.878-2-2v-9.172l2 2zm-3.414-.586 2 2h-9.172l-2-2zm-10.586-12h10v10h-10z" data-original="#000000" class="active-path" data-old_color="#000000" fill="#1991CE"/><path d="m25.028 12.998h-.011c-.552 0-.994.447-.994 1s.452 1 1.005 1c.552 0 1-.447 1-1s-.448-1-1-1z" data-original="#000000" class="active-path" data-old_color="#000000" fill="#1991CE"/><path d="m28.031 9.996h-.011c-.552 0-.994.447-.994 1s.452 1 1.005 1c.552 0 1-.447 1-1s-.448-1-1-1z" data-original="#000000" class="active-path" data-old_color="#000000" fill="#1991CE"/><path d="m28.031 16.002h-.011c-.552 0-.994.447-.994 1s.452 1 1.005 1c.552 0 1-.447 1-1s-.448-1-1-1z" data-original="#000000" class="active-path" data-old_color="#000000" fill="#1991CE"/><path d="m22.025 16.002h-.011c-.552 0-.994.447-.994 1s.452 1 1.005 1c.552 0 1-.447 1-1s-.448-1-1-1z" data-original="#000000" class="active-path" data-old_color="#000000" fill="#1991CE"/><path d="m22.025 9.996h-.011c-.552 0-.994.447-.994 1s.452 1 1.005 1c.552 0 1-.447 1-1s-.448-1-1-1z" data-original="#000000" class="active-path" data-old_color="#000000" fill="#1991CE"/><path d="m38.29 25.718 3.998 3.998c.092.093.203.166.326.217.122.051.252.077.382.077h12c.13 0 .26-.026.382-.077.245-.102.439-.296.541-.541.051-.122.077-.252.077-.382v-12c0-.13-.026-.26-.077-.382-.051-.123-.124-.234-.217-.326l-3.998-3.998c-.092-.093-.203-.166-.326-.217-.122-.051-.252-.077-.382-.077h-12c-.553 0-1 .447-1 1v12c0 .13.026.26.077.382.051.123.124.234.217.326zm15.706.878-2-2v-9.172l2 2zm-3.414-.586 2 2h-9.172l-2-2zm-10.586-12h10v10h-10z" data-original="#000000" class="active-path" data-old_color="#000000" fill="#1991CE"/><path d="m45.026 18.01h-.011c-.552 0-.994.447-.994 1s.452 1 1.005 1c.552 0 1-.447 1-1s-.448-1-1-1z" data-original="#000000" class="active-path" data-old_color="#000000" fill="#1991CE"/><path d="m48.029 15.008h-.011c-.552 0-.994.447-.994 1s.452 1 1.005 1c.552 0 1-.447 1-1s-.448-1-1-1z" data-original="#000000" class="active-path" data-old_color="#000000" fill="#1991CE"/><path d="m42.023 21.014h-.011c-.552 0-.994.447-.994 1s.452 1 1.005 1c.552 0 1-.447 1-1s-.448-1-1-1z" data-original="#000000" class="active-path" data-old_color="#000000" fill="#1991CE"/></g> </svg>
