<?xml version="1.0"?>
<svg xmlns="http://www.w3.org/2000/svg" id="icons" enable-background="new 0 0 64 64" height="512px" viewBox="0 0 64 64" width="512px" class=""><g><path d="m35 12v12l-4-4v-12z" fill="#d7e9ff" data-original="#D7E9FF" class="" style="fill:#1991CE" data-old_color="#d7e9ff"/><path d="m39 13.01h12v12h-12z" fill="#fff" data-original="#FFF" class=""/><path d="m55 29.01h-12l-4-4h12z" fill="#d7e9ff" data-original="#D7E9FF" class="" style="fill:#1991CE" data-old_color="#d7e9ff"/><path d="m35 24h-12l-4-4h12z" fill="#d7e9ff" data-original="#D7E9FF" class="" style="fill:#1991CE" data-old_color="#d7e9ff"/><path d="m19 8h12v12h-12z" fill="#fff" data-original="#FFF" class=""/><path d="m55 17.01v12l-4-4v-12z" fill="#d7e9ff" data-original="#D7E9FF" class="" style="fill:#1991CE" data-old_color="#d7e9ff"/><path d="m11 53v2h-10v-27h10v2z" fill="#94c1ff" data-original="#94C1FF" class="active-path" style="fill:#1991CE" data-old_color="#94c1ff"/><path d="m59 34c2.21 0 4 1.79 4 4 0 1.479-.8 2.77-2 3.47v-.01l-27 14.54-23-3v-23h9l15.69 3.06c1.88.32 3.31 1.969 3.31 3.94l19.32-2.94c.22-.04.45-.06.68-.06z" fill="#d7e9ff" data-original="#D7E9FF" class="" style="fill:#1991CE" data-old_color="#d7e9ff"/><g fill="#116fff"><path d="m6.03 53.002c-.553 0-1.005-.447-1.005-1s.442-1 .994-1h.011c.552 0 1 .447 1 1s-.448 1-1 1z" data-original="#116FFF" class=""/><path d="m61.002 42.467c-.346 0-.682-.179-.866-.499-.277-.479-.113-1.09.364-1.366.926-.535 1.5-1.531 1.5-2.6 0-1.654-1.346-3-3-3-.553 0-1-.447-1-1s.447-1 1-1c2.757 0 5 2.243 5 5 0 1.779-.957 3.439-2.498 4.33-.158.092-.33.135-.5.135z" data-original="#116FFF" class=""/><path d="m34.001 57.002c-.356 0-.701-.19-.882-.526-.262-.486-.079-1.093.407-1.354l27-14.537c.485-.261 1.093-.08 1.354.407.262.486.079 1.093-.407 1.354l-27 14.537c-.15.081-.312.119-.472.119z" data-original="#116FFF" class=""/><path d="m34.001 57.002c-.043 0-.086-.003-.13-.009l-23-3c-.548-.071-.935-.573-.862-1.12.071-.548.566-.936 1.12-.862l23 3c.548.071.935.573.862 1.12-.065.504-.495.871-.99.871z" data-original="#116FFF" class=""/><path d="m11 56.002h-10c-.553 0-1-.447-1-1v-27c0-.553.447-1 1-1h10c.553 0 1 .447 1 1v27c0 .553-.447 1-1 1zm-9-2h8v-25h-8z" data-original="#116FFF" class=""/><path d="m38.999 38.002c-.486 0-.912-.354-.987-.85-.083-.546.292-1.056.838-1.139l19.317-2.941c.548-.084 1.056.292 1.139.838s-.292 1.056-.838 1.139l-19.318 2.941c-.05.008-.101.012-.151.012z" data-original="#116FFF" class=""/><path d="m35 42.002c-.553 0-1-.447-1-1s.447-1 1-1c1.654 0 3-1.346 3-3 0-1.465-1.044-2.708-2.483-2.956-.544-.094-.909-.611-.815-1.155s.613-.907 1.155-.815c2.401.412 4.143 2.485 4.143 4.926 0 2.757-2.243 5-5 5z" data-original="#116FFF" class=""/><path d="m35.688 34.061c-.063 0-.128-.006-.192-.019l-15.688-3.059c-.542-.105-.896-.631-.79-1.173s.629-.897 1.173-.79l15.688 3.059c.542.105.896.631.79 1.173-.093.477-.512.809-.981.809z" data-original="#116FFF" class=""/><path d="m20 31.002h-9c-.553 0-1-.447-1-1s.447-1 1-1h9c.553 0 1 .447 1 1s-.447 1-1 1z" data-original="#116FFF" class=""/><path d="m34.58 41.979c-.025 0-.052-.001-.078-.003l-12.579-.977c-.551-.043-.963-.523-.92-1.074.043-.552.519-.968 1.074-.92l12.579.977c.551.043.963.523.92 1.074-.041.524-.478.923-.996.923z" data-original="#116FFF" class=""/><path d="m58.315 35.059c-.479 0-.903-.346-.985-.835-.091-.545.276-1.061.821-1.151.279-.047.564-.07.849-.07.553 0 1 .447 1 1s-.447 1-1 1c-.177 0-.351.015-.519.043-.055.009-.111.013-.166.013z" data-original="#116FFF" class=""/><path d="m35 42.002c-.18 0-.357-.01-.531-.03-.549-.062-.943-.558-.881-1.105.062-.549.548-.954 1.105-.881.102.011.203.017.307.017.553 0 1 .447 1 1s-.447.999-1 .999z" data-original="#116FFF" class=""/><path d="m30.998 20.998h-12c-.553 0-1-.447-1-1v-12c0-.553.447-1 1-1h12c.553 0 1 .447 1 1v12c0 .553-.447 1-1 1zm-11-2h10v-10h-10z" data-original="#116FFF" class=""/><path d="m34.998 24.998h-12c-.553 0-1-.447-1-1s.447-1 1-1h11v-11c0-.553.447-1 1-1s1 .447 1 1v12c0 .553-.447 1-1 1z" data-original="#116FFF" class=""/><path d="m34.998 24.998c-.256 0-.512-.098-.707-.293l-4-4c-.391-.391-.391-1.023 0-1.414s1.023-.391 1.414 0l4 4c.391.391.391 1.023 0 1.414-.195.195-.451.293-.707.293z" data-original="#116FFF" class=""/><path d="m34.998 12.998c-.256 0-.512-.098-.707-.293l-4-4c-.391-.391-.391-1.023 0-1.414s1.023-.391 1.414 0l4 4c.391.391.391 1.023 0 1.414-.195.195-.451.293-.707.293z" data-original="#116FFF" class=""/><path d="m22.998 24.998c-.256 0-.512-.098-.707-.293l-4-4c-.391-.391-.391-1.023 0-1.414s1.023-.391 1.414 0l4 4c.391.391.391 1.023 0 1.414-.195.195-.451.293-.707.293z" data-original="#116FFF" class=""/><path d="m25.028 14.998c-.553 0-1.005-.447-1.005-1s.442-1 .994-1h.011c.552 0 1 .447 1 1s-.448 1-1 1z" data-original="#116FFF" class=""/><path d="m28.031 11.996c-.553 0-1.005-.447-1.005-1s.442-1 .994-1h.011c.552 0 1 .447 1 1s-.448 1-1 1z" data-original="#116FFF" class=""/><path d="m28.031 18.002c-.553 0-1.005-.447-1.005-1s.442-1 .994-1h.011c.552 0 1 .447 1 1s-.448 1-1 1z" data-original="#116FFF" class=""/><path d="m22.025 18.002c-.553 0-1.005-.447-1.005-1s.442-1 .994-1h.011c.552 0 1 .447 1 1s-.448 1-1 1z" data-original="#116FFF" class=""/><path d="m22.025 11.996c-.553 0-1.005-.447-1.005-1s.442-1 .994-1h.011c.552 0 1 .447 1 1s-.448 1-1 1z" data-original="#116FFF" class=""/><path d="m50.996 26.01h-12c-.553 0-1-.447-1-1v-12c0-.553.447-1 1-1h12c.553 0 1 .447 1 1v12c0 .553-.447 1-1 1zm-11-2h10v-10h-10z" data-original="#116FFF" class=""/><path d="m54.996 30.01h-12c-.553 0-1-.447-1-1s.447-1 1-1h11v-11c0-.553.447-1 1-1s1 .447 1 1v12c0 .553-.447 1-1 1z" data-original="#116FFF" class=""/><path d="m54.996 30.01c-.256 0-.512-.098-.707-.293l-4-4c-.391-.391-.391-1.023 0-1.414s1.023-.391 1.414 0l4 4c.391.391.391 1.023 0 1.414-.195.195-.451.293-.707.293z" data-original="#116FFF" class=""/><path d="m54.996 18.01c-.256 0-.512-.098-.707-.293l-4-4c-.391-.391-.391-1.023 0-1.414s1.023-.391 1.414 0l4 4c.391.391.391 1.023 0 1.414-.195.195-.451.293-.707.293z" data-original="#116FFF" class=""/><path d="m42.996 30.01c-.256 0-.512-.098-.707-.293l-4-4c-.391-.391-.391-1.023 0-1.414s1.023-.391 1.414 0l4 4c.391.391.391 1.023 0 1.414-.195.195-.451.293-.707.293z" data-original="#116FFF" class=""/><path d="m45.026 20.01c-.553 0-1.005-.447-1.005-1s.442-1 .994-1h.011c.552 0 1 .447 1 1s-.448 1-1 1z" data-original="#116FFF" class=""/><path d="m48.029 17.008c-.553 0-1.005-.447-1.005-1s.442-1 .994-1h.011c.552 0 1 .447 1 1s-.448 1-1 1z" data-original="#116FFF" class=""/><path d="m42.023 23.014c-.553 0-1.005-.447-1.005-1s.442-1 .994-1h.011c.552 0 1 .447 1 1s-.448 1-1 1z" data-original="#116FFF" class=""/></g></g> </svg>
